<svg xmlns="http://www.w3.org/2000/svg" viewBox="0 0 128 128" width="128" height="128">
  <defs>
    <linearGradient id="g" x1="0" y1="0" x2="0" y2="1">
      <stop offset="0%" stop-color="#7DD3FC"/>
      <stop offset="100%" stop-color="#38BDF8"/>
    </linearGradient>
  </defs>
  <rect width="128" height="128" rx="28" fill="url(#g)"/>
  <!-- stylized N / wave -->
  <path d="M28 92 V36 c0-2 2-4 4-4 h10 c14 0 22 8 34 28 L92 84 V36 c0-2 2-4 4-4 h8 c2 0 4 2 4 4 v56 c0 2-2 4-4 4 H94 c-14 0-22-8-34-28 L44 44 v48 c0 2-2 4-4 4 h-8 c-2 0-4-2-4-4z" fill="#fff" opacity="0.95"/>
  <path d="M34 78c18-10 30 6 48-8 6-4 12-6 18-6" fill="none" stroke="#fff" stroke-width="7" stroke-linecap="round"/>
</svg>
